<svg xmlns="http://www.w3.org/2000/svg" width="1717" height="270" viewBox="0 0 1717 270" fill="none">
  <path fill-rule="evenodd" clip-rule="evenodd" d="M945.597 0C965.956 3.4127e-05 988.504 8.53766 988.504 23.4238C988.504 35.6829 974.274 41.1553 958.731 41.1553C944.502 41.1553 928.521 37.8722 910.352 33.7129C900.719 31.5238 890.868 29.3345 880.36 27.3643C870.509 34.5884 860.658 43.5637 850.588 53.8525V113.835C865.912 136.602 878.608 171.191 878.608 206.655C878.608 248.03 862.19 269.922 838.985 269.922C818.188 269.922 792.794 251.971 780.097 209.282H759.081C749.668 209.282 737.628 209.501 723.617 214.317L713.328 264.668L710.92 263.792L732.812 153.24L735.22 154.115L725.149 206.655H746.822C753.171 194.177 759.081 182.355 765.648 170.972C759.519 141.637 756.673 122.592 756.673 102.671C756.673 34.5884 786.665 19.7021 827.383 19.7021C846.209 19.7022 863.722 21.8914 879.703 24.7373C902.032 8.53762 924.581 0 945.597 0ZM782.505 209.282C795.421 247.154 813.81 255.254 829.572 255.254C852.777 255.254 870.728 238.179 874.449 209.063L782.505 209.282ZM832.418 74.4307C805.71 107.268 777.908 151.051 749.668 206.655H832.418V74.4307ZM850.588 206.655H874.668C874.887 203.809 875.106 200.963 875.106 197.898C875.106 173.38 864.598 140.762 850.588 118.433V206.655ZM827.383 22.3291C787.978 22.3291 759.3 36.3398 759.3 102.671C759.3 121.935 761.927 139.668 767.619 167.251C804.835 100.482 841.174 53.6334 876.857 26.9258C861.533 24.2988 845.115 22.3291 827.383 22.3291ZM945.597 2.62695C925.675 2.62695 904.659 10.2886 883.425 25.1748L910.789 31.0859C928.959 35.2453 944.721 38.5283 958.731 38.5283C972.961 38.5283 985.877 33.9316 985.877 23.4238C985.877 10.289 965.299 2.62698 945.597 2.62695Z" fill="white"/>
  <path fill-rule="evenodd" clip-rule="evenodd" d="M1716.21 39.623C1689.94 59.5442 1686 77.7143 1686 105.954V206.655H1707.46V209.282H1645.94V206.655H1667.83V109.676C1667.83 86.471 1668.49 78.1526 1688.41 59.5449C1656.67 84.939 1632.15 110.99 1615.08 134.852C1629.52 164.405 1637.19 184.326 1637.19 203.152C1637.19 222.855 1627.99 243.652 1605 243.871H1604.79C1588.59 243.652 1579.83 228.547 1579.83 211.69C1579.83 195.71 1587.49 173.161 1602.82 148.205C1586.84 116.9 1569.76 86.4709 1552.03 53.6338V206.655H1573.7V209.282H1527.73V206.655H1549.4V53.6338H1530.14V51.0068H1570.2C1583.99 78.1522 1599.53 104.203 1613.54 132.443C1635.43 102.014 1668.93 68.5196 1714.46 37.2148L1716.21 39.623ZM1604.35 150.832C1589.68 174.913 1582.46 196.366 1582.46 211.69C1582.46 227.233 1590.34 241.244 1605 241.244C1620.77 241.244 1625.8 228.984 1625.8 216.287C1625.8 199.65 1617.92 178.415 1604.35 150.832Z" fill="white"/>
  <path fill-rule="evenodd" clip-rule="evenodd" d="M648.788 47.5039C686.879 47.5041 698.263 68.3013 698.263 85.8145C698.263 102.89 687.536 120.621 661.923 124.124C685.784 127.189 714.024 140.981 714.024 174.037C714.024 205.123 693.008 229.86 647.693 229.86C629.139 229.86 611.906 222.51 601.37 209.282H541.677V206.655H567.071L545.836 147.986C539.925 183.669 493.954 207.311 455.425 211.252C460.241 190.893 472.062 174.037 485.635 159.808C480.381 154.116 477.973 146.892 477.973 140.324C478.192 127.408 486.948 116.681 499.646 113.179L523.069 51.0068H528.323L586.116 206.655H599.42C593.978 198.774 590.775 189.054 590.775 177.759C590.775 155.867 602.816 128.503 634.12 97.1982L635.872 98.9492C605.224 130.035 593.402 156.743 593.402 177.759C593.402 189.175 596.877 198.914 602.717 206.655H603.191V207.273C613.196 220.075 629.771 227.233 647.693 227.233C682.282 227.233 693.446 201.182 693.446 175.788C693.446 135.727 670.241 125.438 643.972 125.438H642.439V122.811H644.409C670.898 122.811 679.873 106.611 679.873 85.8145C679.873 64.1419 667.833 50.1309 648.568 50.1309C630.18 50.131 616.826 59.3258 606.756 76.8389L604.786 128.284H602.159L604.129 49.4746H607.632L606.975 64.3604C621.642 50.1309 638.937 47.5039 648.788 47.5039ZM528.323 119.089C525.039 123.905 520.004 129.16 514.531 135.07C495.486 154.991 478.41 174.256 478.41 203.591C507.963 196.805 542.552 173.818 542.553 145.141C542.553 134.195 538.174 124.124 528.323 119.089ZM510.591 114.492C493.953 114.492 480.818 125.438 480.818 140.324C480.818 145.578 482.789 152.583 487.604 157.837C493.077 151.489 499.645 145.359 505.556 139.887C513.874 131.568 521.318 124.343 525.915 117.775C521.099 115.586 516.064 114.492 510.591 114.492ZM503.147 112.303C505.556 111.865 508.183 111.646 510.372 111.646C520.661 111.646 529.856 115.149 536.204 121.278L518.91 70.709L503.147 112.303Z" fill="white"/>
  <path d="M1181.57 206.655H1203.46V209.282H1141.73V206.655H1163.4V75.0879L1061.6 212.785H1059.19V53.6338H1037.52V51.0068H1099.26V53.6338H1077.36V186.077L1179.6 48.3799H1181.57V206.655Z" fill="white"/>
  <path d="M76.6201 47.5039C92.6008 47.5039 111.208 52.5398 126.751 65.8936L125.876 51.0068H128.503C129.16 62.1713 130.035 72.6791 130.911 82.749C131.787 93.038 132.663 104.203 133.319 115.806H130.691L127.408 74.2119C112.084 55.6042 92.3818 50.1309 76.8389 50.1309C35.0262 50.1309 19.9209 88.0034 19.9209 130.254C19.9209 185.201 45.5344 209.72 77.7148 209.72C100.92 209.72 120.184 197.023 129.378 186.515L136.821 130.254H139.448L129.159 209.282H126.532L128.284 194.834C108.582 210.815 87.785 212.347 76.4014 212.347C27.5834 212.347 0 178.415 0 131.567C3.39892e-05 95.0087 20.3591 47.5039 76.6201 47.5039Z" fill="white"/>
  <path fill-rule="evenodd" clip-rule="evenodd" d="M1267.08 53.6338H1245.18V121.497H1262.7C1263.79 119.746 1264.89 117.994 1266.42 116.462L1315.24 53.6338H1294V51.0068H1343.04V53.6338H1318.3L1274.96 109.238C1280.21 106.392 1286.12 105.079 1292.69 105.079C1319.62 105.079 1353.11 130.692 1354.2 185.201C1353.77 203.59 1348.51 212.347 1336.25 212.347C1317.21 212.346 1307.14 191.331 1297.72 169.439L1296.19 165.718C1293.57 159.807 1291.16 154.116 1288.09 148.205C1279.77 132.662 1274.08 124.562 1264.23 124.124C1261.82 128.721 1260.73 134.194 1260.73 140.762C1260.73 156.961 1269.48 179.51 1290.28 206.655V209.282H1205.34V206.655H1227.01V53.6338H1205.34V51.0068H1267.08V53.6338ZM1292.69 107.706C1283.28 107.706 1272.55 110.989 1265.54 121.497C1291.38 123.467 1305.61 144.265 1305.61 144.265C1315.24 155.429 1320.93 168.783 1327.5 186.515C1329.47 191.769 1334.72 207.093 1341.95 207.093C1348.07 207.093 1351.14 199.212 1351.58 185.201C1349.83 133.538 1318.3 107.706 1292.69 107.706ZM1245.18 206.655H1286.56C1266.64 179.729 1258.1 157.18 1258.1 140.762C1258.1 134.413 1259.2 128.721 1261.38 124.124H1245.18V206.655Z" fill="white"/>
  <path d="M1439.98 113.616C1443.27 123.248 1448.52 126.751 1454.65 127.408V129.598C1448.52 130.254 1443.27 133.757 1439.98 143.389H1438.23C1434.95 133.757 1429.47 130.254 1423.34 129.598V127.408C1429.47 126.751 1434.95 123.248 1438.23 113.616H1439.98Z" fill="white"/>
  <path fill-rule="evenodd" clip-rule="evenodd" d="M1439.32 47.5039C1497.34 47.5039 1517.92 92.382 1517.92 129.816C1517.91 162.435 1499.53 212.347 1439.32 212.347C1378.9 212.347 1360.73 162.435 1360.73 129.816C1360.73 95.009 1381.53 47.504 1439.32 47.5039ZM1439.32 50.1309C1401.01 50.1309 1380.66 81.6552 1380.66 129.816C1380.66 170.534 1399.92 209.72 1439.32 209.72C1478.73 209.72 1497.77 170.534 1497.77 129.816C1497.77 84.2822 1477.2 50.1309 1439.32 50.1309Z" fill="white"/>
  <path d="M355.194 53.6338H333.084V206.655H355.194V209.282H292.584V206.655H314.694V53.6338H237.199V206.655H259.528V209.282H196.919V206.655H219.029V53.6338H196.919V51.0068H355.194V53.6338Z" fill="white"/>
  <path fill-rule="evenodd" clip-rule="evenodd" d="M386.377 51.0068C441.762 51.0068 464.53 69.6144 464.53 93.0381C464.53 113.835 443.733 139.011 405.423 158.713C403.234 165.718 400.388 172.504 397.104 179.729V206.655H418.996V209.282H357.262V206.655H378.935V53.6338H357.262V51.0068H386.377ZM397.104 173.38C405.861 153.459 410.021 133.975 410.021 115.806C410.021 98.0738 405.861 82.312 397.104 69.834V173.38ZM384.188 53.6338C403.453 66.5498 412.647 89.317 412.647 115.806C412.647 128.284 410.458 141.856 406.518 155.21C434.539 139.01 446.579 117.557 446.579 98.9492C446.579 74.2119 426.001 53.6339 385.502 53.6338H384.188Z" fill="white"/>
  <path d="M944.024 53.6338H923.227V128.722H995.468V53.6338H974.024V51.0068H1035.31V53.6338H1013.64V206.655H1035.31V209.282H974.024V206.655H995.468V131.349H923.227V206.655H944.024V209.282H883.384V206.655H905.057V53.6338H883.384V51.0068H944.024V53.6338Z" fill="white"/>
</svg>
