<svg xmlns="http://www.w3.org/2000/svg" width="774" height="208" viewBox="0 0 774 208" fill="none">
  <path d="M762.522 10.2891C769.309 10.2891 773.25 13.1353 773.906 16.4189C765.587 60.2019 764.93 101.358 764.273 153.679C769.308 154.773 773.249 159.37 773.249 164.624C773.249 169.878 769.309 174.475 764.055 175.351C763.836 184.983 763.836 196.367 763.836 207.97H761.209C761.209 196.148 761.209 185.202 760.99 175.351C755.955 174.475 751.357 170.535 751.357 164.624C751.358 159.151 755.736 154.773 760.771 153.679C760.333 108.144 759.677 63.2667 750.92 16.4189C751.577 13.1353 755.517 10.2891 762.522 10.2891Z" fill="white"/>
  <path d="M230.972 2.18945L210.784 42.9502L207.905 41.5674L220.405 16.4189H160.202V90.2822H174.691C182.572 90.0633 189.139 88.7502 193.736 84.1533C198.115 79.3372 201.837 71.237 203.588 61.167H206.215C205.339 71.4558 204.901 81.7447 204.901 91.5957C204.901 101.666 206.339 112.736 207.215 123.025H204.588C202.837 112.736 198.115 102.98 193.736 98.6016C188.92 94.2234 182.572 93.1281 174.691 92.9092H160.554L160.202 169.44H230.405L213.177 142.731L215.405 141.067L245.405 187.067L242.405 188.067L231.905 172.067H120.36V169.44H142.032V16.4189H120.36V13.792H221.905L227.905 1.06738L230.972 2.18945Z" fill="white"/>
  <path d="M320.519 10.2891C336.499 10.2891 355.107 15.325 370.649 28.6787L369.774 13.792H372.401C373.058 24.9566 373.933 35.4651 374.809 45.5352C375.684 55.824 376.56 66.9885 377.217 78.5908H374.59L371.307 36.9971C355.983 18.3894 336.28 12.9161 320.737 12.916C278.925 12.916 263.819 50.7886 263.819 93.0391C263.819 147.986 289.432 172.505 321.612 172.505C344.817 172.505 364.082 159.808 373.276 149.3L380.72 93.0391H383.347L373.058 172.067H370.431L372.182 157.619C352.479 173.6 331.682 175.132 320.299 175.132C271.481 175.132 243.898 141.2 243.898 94.3525C243.898 57.7938 264.258 10.2891 320.519 10.2891Z" fill="white"/>
  <path fill-rule="evenodd" clip-rule="evenodd" d="M48.5986 13.792C89.0975 13.792 101.357 25.0674 101.357 40.2803C101.357 56.0376 86.083 68.956 75.5254 78.4824L84.9385 92.3828C95.2274 105.955 111.865 128.065 111.865 145.359C111.865 168.564 83.4061 172.067 58.8877 172.067H0V169.44H21.6719V16.4189H0V13.792H48.5986ZM72.7549 80.9521C63.7313 88.8911 52.7617 97.6641 39.8418 108.1V169.44H56.2607C82.3114 169.44 95.4461 154.773 95.4463 133.977C95.4463 118.872 88.2227 103.766 79.0283 90.1934L77.0576 87.1289C75.6108 85.0199 74.1767 82.9638 72.7549 80.9521ZM39.8418 105.057C52.8332 94.2791 62.6515 85.0226 69.7041 76.6797C59.5633 62.6212 49.917 50.6416 39.8418 38.0918V105.057ZM25.832 16.4189C43.7607 37.9761 55.0949 50.6254 72.085 73.7656C94.4053 45.0674 83.9053 16.4189 43.7822 16.4189H25.832Z" fill="white"/>
  <path fill-rule="evenodd" clip-rule="evenodd" d="M734.245 2.4082C707.975 22.3294 703.378 40.4995 703.378 68.7393V169.44H724.831V172.067H663.535V169.44H685.208V72.4609C685.208 43.7833 686.521 38.3102 724.831 6.12988C682.799 24.7376 642.738 48.8186 612.747 86.2529C643.176 98.0742 656.53 116.463 656.53 133.757C656.53 154.116 635.514 172.067 599.831 172.067H547.072V169.44H568.745V16.4189H547.072V13.792H608.807V16.4189H586.915V121.717C619.314 59.1073 674.7 24.5184 732.712 0L734.245 2.4082ZM608.588 92.1631C592.388 113.398 579.91 138.573 571.591 169.44H594.796C616.906 169.44 636.171 152.584 636.171 132.225C636.171 119.09 628.29 104.641 608.588 92.1631Z" fill="white"/>
  <path d="M447.339 16.4189H426.541V91.5068H498.782V16.4189H477.339V13.792H538.625V16.4189H516.952V169.44H538.625V172.067H477.339V169.44H498.782V94.1338H426.541V169.44H447.339V172.067H386.698V169.44H408.371V16.4189H386.698V13.792H447.339V16.4189Z" fill="white"/>
</svg>
