<svg width="240" height="70" viewBox="0 0 240 70" fill="none" xmlns="http://www.w3.org/2000/svg">
<path d="M102.595 26.9218C110.243 26.9218 113.364 31.6606 112.008 41.1218H96.9407C96.9407 44.3136 99.4737 45.9041 104.54 45.8932C106.86 45.8805 109.174 45.6507 111.452 45.2069V49.9457C108.87 50.4552 106.24 50.6853 103.608 50.632C95.2521 50.632 91.0796 46.5904 91.0905 38.5073C91.0905 30.7836 94.9035 26.9163 102.53 26.9054L102.595 26.9218ZM190.856 50.632V26.9218H195.35L196.069 29.9448C198.773 27.7248 202.242 26.6567 205.726 26.9708V31.6769C204.081 31.4569 202.408 31.6213 200.837 32.1572C199.266 32.6931 197.841 33.5858 196.673 34.7653V50.6484L190.856 50.632ZM165.183 43.2461C165.183 38.3766 168.517 35.9418 175.184 35.9418C176.981 35.9206 178.776 36.0738 180.544 36.3993V34.7653C180.544 32.5865 178.55 31.4971 174.563 31.4971C172.021 31.501 169.493 31.8809 167.062 32.6247V27.8859C169.492 27.1368 172.02 26.7514 174.563 26.742C182.418 26.742 186.345 29.3511 186.345 34.5692V50.4686H183.404L180.904 48.8345C178.951 49.9225 176.749 50.4855 174.514 50.4686C168.337 50.5884 165.248 48.1864 165.248 43.2624L165.183 43.2461ZM180.544 40.9093C178.776 40.5893 176.981 40.4415 175.184 40.4681C172.39 40.4681 171.001 41.3669 171.001 43.1807C171.001 44.9945 172.161 45.8769 174.514 45.8769C176.673 45.9422 178.792 45.2931 180.544 44.0304V40.9093ZM139.69 50.7137V18.3593H145.508V29.5036C147.77 27.8215 150.516 26.9159 153.335 26.9218C158.63 26.9218 161.294 29.8794 161.294 35.7621V50.6484H155.574V35.6967C155.657 35.1728 155.617 34.6368 155.457 34.1311C155.297 33.6255 155.021 33.1641 154.651 32.7835C154.282 32.4029 153.829 32.1137 153.328 31.9386C152.827 31.7635 152.293 31.7075 151.767 31.7749C149.397 31.931 147.182 33.0036 145.59 34.7653V50.6484L139.69 50.7137ZM135.196 45.2069C133.257 45.6556 131.272 45.8804 129.281 45.8769C124.378 45.8769 121.927 43.355 121.927 38.3112C121.927 33.8774 124.378 31.6606 129.281 31.6606C131.272 31.6489 133.258 31.8738 135.196 32.3305V27.5917C133.112 27.1136 130.978 26.8833 128.839 26.9054C120.364 26.9054 116.12 30.7182 116.109 38.3439C116.109 46.5578 120.353 50.6647 128.839 50.6647C130.978 50.6868 133.112 50.4565 135.196 49.9784V45.2069ZM219.617 50.632C219.976 48.998 220.287 47.4946 220.532 45.8769H218.195C216.332 45.8769 215.401 44.7657 215.401 42.6088V31.7096H220.842C220.679 30.0755 220.467 28.5395 220.172 26.9545H214.78L213.897 23.1307H209.599V44.2755C209.599 48.5568 211.528 50.681 215.384 50.681L219.617 50.632ZM72.5428 18.3429C71.9384 20.0394 71.4311 21.7689 71.0231 23.5229H79.9455V50.632H85.7631V23.5393H94.751V18.3593L72.5428 18.3429ZM96.9244 36.7098H106.55C106.757 33.311 105.22 31.6115 101.941 31.6115C98.869 31.6224 97.2022 33.3273 96.9407 36.7261L96.9244 36.7098Z" fill="white"/>
<path fill-rule="evenodd" clip-rule="evenodd" d="M43.847 54.3741C67.0847 50.9589 37.6699 -5.46527 13.0432 19.3071C-1.86029 34.3078 25.1359 57.1193 43.847 54.3741Z" fill="white"/>
<path fill-rule="evenodd" clip-rule="evenodd" d="M49.5214 15.7935C25.9078 2.93343 4.15723 34.1604 22.7376 46.71C50.9921 65.7304 67.0722 25.3528 49.5214 15.7935Z" fill="#61CBFF"/>
<path fill-rule="evenodd" clip-rule="evenodd" d="M47.4584 20.8433C27.8485 4.92753 0.476437 33.6707 15.0041 50.4198C34.3361 72.7085 63.7182 37.0042 47.4584 20.8433Z" fill="#F74F4F"/>
<path fill-rule="evenodd" clip-rule="evenodd" d="M43.847 54.3741C67.0847 50.9589 37.6699 -5.46527 13.0432 19.3071C-1.86029 34.3078 25.1359 57.1193 43.847 54.3741Z" fill="#FFC401"/>
<path fill-rule="evenodd" clip-rule="evenodd" d="M51.4978 37.723C49.8636 30.2226 43.7029 20.598 36.6107 16.2514C24.2401 15.2383 12.5886 26.0558 10.9544 37.0857C15.6117 46.1874 28.3582 53.7204 39.0946 54.5211C45.2913 50.786 49.7523 44.7444 51.4978 37.723Z" fill="#9B407A"/>
</svg>
